<svg width="192" height="245" viewBox="0 0 192 245" fill="none" xmlns="http://www.w3.org/2000/svg">
<path fill-rule="evenodd" clip-rule="evenodd" d="M117.092 22.5367C114.244 19.1944 112.317 15.0983 112.639 10.5086C113.567 -2.71579 131.976 0.1934 135.557 6.86791C139.137 13.5424 138.712 30.4729 134.084 31.6658C132.238 32.1415 128.307 30.9762 124.305 28.5642L126.817 46.3337H111.986L117.092 22.5367Z" fill="#B28B67"/>
<path fill-rule="evenodd" clip-rule="evenodd" d="M125.046 11.969C125.614 19.877 127.116 23.831 129.552 23.831C133.205 23.831 136.305 21.5114 137.909 21.5114C139.077 21.5114 138.816 22.9739 138.042 24.0582C137.403 24.9529 134.29 25.8152 134.29 27.2021C134.29 28.589 136.749 27.516 136.749 28.3386C136.749 29.6992 137.181 32.2575 134.82 32.2575C132.43 32.2575 125.578 31.3865 124.403 27.8395C123.645 25.5503 123.155 20.8067 122.933 13.6086C122.788 13.5914 122.641 13.5825 122.491 13.5825C120.443 13.5825 118.783 15.2425 118.783 17.2902C118.783 18.3297 119.211 19.2693 119.9 19.9426C119.042 21.1535 118.081 22.4185 116.979 23.7238C112.84 21.2405 109.769 13.9712 113.815 6.98797C114.934 3.567 117.466 1.73974 120.456 0.891275C122.879 -0.122026 125.393 -0.236277 127.516 0.371188C131.677 0.728109 135.393 1.99697 136.446 2.75051C136.446 6.69006 135.683 7.85891 129.163 7.75588C127.561 8.60196 126.329 10.0589 125.046 11.969Z" fill="#191847"/>
<path fill-rule="evenodd" clip-rule="evenodd" d="M107.042 97.6233L129.446 176.243L145.792 234.189H157.714L140.344 97.6233H107.042Z" fill="#191847"/>
<path fill-rule="evenodd" clip-rule="evenodd" d="M101.051 97.6233C100.533 138.145 98.7656 160.246 98.2215 163.928C97.6775 167.609 89.4507 191.03 73.5411 234.189H85.8916C106.146 192.785 117.452 169.365 119.811 163.928C122.169 158.491 129.448 136.389 140.411 97.6233H101.051Z" fill="#2F3676"/>
<path fill-rule="evenodd" clip-rule="evenodd" d="M72.4373 245.313L73.0552 232.336H86.0321C92.1853 236.661 100.219 240.163 110.132 242.841V245.313H86.65L78.6167 244.077V245.313H72.4373Z" fill="#191847"/>
<path fill-rule="evenodd" clip-rule="evenodd" d="M144.119 245.313L144.737 232.336H157.714C163.867 236.661 171.9 240.163 181.814 242.841V245.313H158.332L150.298 244.077V245.313H144.119Z" fill="#191847"/>
<path fill-rule="evenodd" clip-rule="evenodd" d="M159.172 87.4953L177.825 103.31C183.058 105.122 187.388 107.224 190.817 109.616C191.608 110.445 192.52 112.076 189.034 111.561C185.547 111.047 181.857 110.662 181.29 111.824C180.722 112.986 182.744 114.564 181.653 116.109C180.926 117.139 178.035 114.227 172.981 107.373L154.073 97.9365L159.172 87.4953ZM74.7034 80.6521L85.6484 82.2416C73.8999 107.732 67.6015 121.212 66.753 122.683C64.8438 125.993 67.0891 131.759 67.9669 134.811C63.531 136.092 64.9477 129.238 59.3388 130.948C54.2193 132.508 49.9946 136.045 44.9242 131.839C44.3008 131.322 43.7757 129.631 45.7571 128.646C50.6934 126.192 57.9411 121.7 59.0677 120.045C60.6041 117.788 65.816 104.657 74.7034 80.6521Z" fill="#B28B67"/>
<path fill-rule="evenodd" clip-rule="evenodd" d="M120.449 36.0338L127.231 33.791C136.43 56.7726 150.151 79.0084 173.074 97.7902L167.406 107.57C147.259 95.7025 128.188 86.4834 120.449 68.6754C117.851 62.6985 120.237 43.1803 120.449 36.0338Z" fill="#C5CFD6"/>
<path fill-rule="evenodd" clip-rule="evenodd" d="M97.1552 100.713C116.582 102.773 131.874 102.773 143.029 100.713C144.411 100.458 144.629 98.1438 143.988 96.5733C134.007 72.1171 127.163 50.7777 127.163 33.791C125.331 34.7143 122.126 34.8527 117.547 34.2061C105.242 51.7115 99.5853 71.7969 97.1552 100.713Z" fill="#323337"/>
<path fill-rule="evenodd" clip-rule="evenodd" d="M114.488 32.739H119.617C120.811 39.7619 124.577 134.862 136.204 165.972H73.2933C74.6572 137.473 85.4159 103.239 96.3146 74.5914C86.6775 83.4102 78.278 98.3531 71.116 119.42L59.3323 116.395C68.0939 78.6407 86.1078 50.8911 113.374 33.1462C113.433 33.0098 113.492 32.8741 113.55 32.739H114.004C114.171 32.6318 114.338 32.5249 114.506 32.4185L114.488 32.739Z" fill="#DDE3E9"/>
<path fill-rule="evenodd" clip-rule="evenodd" d="M53.5057 88.1377C51.4949 85.7756 50.134 82.8809 50.3614 79.6372C51.0166 70.2914 64.0162 72.3474 66.5449 77.0643C69.0736 81.7813 68.7731 93.7463 65.505 94.5894C64.2017 94.9256 61.4252 94.102 58.5995 92.3975L60.3732 104.955H49.9003L53.5057 88.1377Z" fill="#B28B67"/>
<path fill-rule="evenodd" clip-rule="evenodd" d="M71.1847 70.5253C70.9678 69.7624 70.3845 69.1091 69.5983 68.9154C69.4077 68.8684 69.2108 68.8494 69.0147 68.8573C68.9443 68.8601 68.9246 68.8804 68.8917 68.8312C68.8673 68.7946 68.8668 68.7055 68.8567 68.6625C68.8255 68.5291 68.7864 68.3974 68.7382 68.269C68.5737 67.8313 68.2973 67.4439 67.9641 67.1175C67.3408 66.507 66.4986 66.0856 65.6236 66.0094C65.1448 65.9677 64.6694 66.0456 64.2166 66.2015C63.9822 66.2822 63.755 66.3827 63.5336 66.4938C63.467 66.5272 63.2507 66.691 63.1838 66.6804C63.11 66.6687 62.9615 66.485 62.9014 66.4389C62.159 65.8688 61.2422 65.6447 60.3174 65.6515C59.2736 65.6592 58.2685 65.7114 57.398 66.3482C57.2137 66.4831 57.0382 66.6307 56.8711 66.7861C56.7831 66.8679 56.6979 66.9528 56.6166 67.0412C56.5675 67.0946 56.5198 67.1491 56.4738 67.2051C56.3958 67.3002 56.4083 67.3314 56.2991 67.2651C55.8801 67.0104 55.3947 66.8912 54.9056 66.9514C54.6153 66.9871 54.3328 67.0744 54.0645 67.1892C53.9732 67.2283 53.7618 67.3842 53.6644 67.3857C53.5679 67.3872 53.3594 67.2427 53.2599 67.2059C52.7227 67.0074 52.1436 66.9585 51.5789 67.0502C50.9963 67.1449 50.4241 67.3775 49.9306 67.6989C49.6932 67.8535 49.4861 68.0248 49.3197 68.2547C49.2479 68.354 49.1829 68.459 49.1015 68.551C49.0539 68.6049 48.9595 68.6602 48.9339 68.7284C48.9492 68.6875 48.2968 68.4358 48.2353 68.4197C47.9073 68.334 47.5734 68.3514 47.2522 68.4572C46.6483 68.6561 46.129 69.1021 45.7021 69.5594C45.4829 69.7943 45.2911 70.0539 45.1282 70.3305C45.0502 70.463 44.9788 70.5993 44.9135 70.7385C44.8818 70.8059 44.8609 70.8903 44.8192 70.951C44.7655 71.0293 44.7294 71.0308 44.632 71.0649C44.1378 71.2382 43.6873 71.5315 43.3442 71.9278C42.9971 72.3288 42.7719 72.8226 42.6775 73.3426C42.672 73.3732 42.6687 73.5001 42.6507 73.5167C42.6262 73.5395 42.5268 73.5294 42.4892 73.5339C42.359 73.5491 42.2297 73.5719 42.1022 73.6021C41.867 73.6578 41.6382 73.7398 41.4217 73.847C40.5777 74.2649 39.9742 75.0483 39.6788 75.9299C39.3689 76.855 39.3744 77.915 39.7448 78.8228C39.8046 78.9695 39.8758 79.1118 39.9595 79.2465C40.0108 79.3291 40.0274 79.3293 39.994 79.416C39.9569 79.5125 39.889 79.6063 39.8449 79.7006C39.7009 80.0082 39.6002 80.3345 39.5366 80.6677C39.4323 81.2144 39.3806 81.7889 39.4835 82.3397C39.5313 82.5955 39.6146 82.8455 39.7416 83.0733C39.8063 83.1895 39.8821 83.2996 39.9677 83.4015C40.0121 83.4544 40.0592 83.505 40.1086 83.5534C40.1368 83.581 40.1738 83.6052 40.1978 83.6361C40.2564 83.7114 40.2687 83.6495 40.2385 83.7601C40.1962 83.9147 40.1005 84.0673 40.0419 84.2177C39.9815 84.3728 39.9269 84.5299 39.8769 84.6887C39.7758 85.01 39.6903 85.3372 39.6368 85.6701C39.5341 86.3091 39.5521 86.99 39.8541 87.5764C39.9833 87.8273 40.1685 88.0474 40.3932 88.2186C40.5032 88.3023 40.6223 88.3745 40.7473 88.4338C40.8115 88.4643 40.8935 88.4774 40.9228 88.5395C40.9543 88.6063 40.9075 88.739 40.8968 88.8137C40.804 89.4637 40.7574 90.1461 40.9504 90.783C41.1282 91.3697 41.5197 91.8876 42.028 92.2305C43.014 92.8958 44.3432 92.8582 45.3792 92.3257C45.6493 92.1869 45.9019 92.0145 46.1273 91.8112C46.7012 92.5844 47.8823 92.5599 48.7211 92.3396C49.7661 92.0651 50.6046 91.3379 51.0878 90.3824C51.7484 91.1873 53.1348 90.9261 53.5929 90.053C53.7051 89.8393 53.7716 89.6038 53.8043 89.3655C53.8215 89.2401 53.8106 89.1137 53.8235 88.9894C53.84 88.8309 53.9458 88.677 54.0065 88.5237C54.1249 88.2255 54.1984 87.9174 54.2016 87.5956C54.2032 87.4277 54.182 87.2639 54.166 87.0973C54.1516 86.9473 54.1932 86.8076 54.2168 86.6595C53.9488 86.7037 53.6223 86.6314 53.3698 86.5536C53.122 86.4773 52.8899 86.2762 52.715 86.0927C52.3089 85.6664 52.0608 85.1075 51.8911 84.5514C51.5187 83.3306 51.6714 81.866 52.8982 81.1961C53.4698 80.884 55.182 80.885 55.8627 81.0393C56.5785 81.2014 57.3899 82.782 57.4298 82.9306C57.4545 83.0225 57.4421 83.1363 57.5265 83.1976C57.712 83.3323 58.0179 83.0985 58.1547 82.9832C58.3908 82.784 58.5592 82.5191 58.705 82.2505C59.0228 81.6655 59.279 81.038 59.46 80.3975C59.5995 79.9037 59.6887 79.3945 59.8711 78.9133C60.0525 78.4345 60.3386 78.0065 60.7833 77.7352C61.2672 77.4401 61.8218 77.2847 62.3529 77.0993C62.8794 76.9155 63.3968 76.6909 63.8049 76.3009C63.8946 76.2152 63.9818 76.124 64.054 76.0231C64.111 75.9434 64.1674 75.7908 64.2543 75.7403C64.3893 75.6617 64.5864 75.8661 64.7032 75.9403C65.2794 76.3066 65.7601 76.8173 66.1479 77.3753C66.5334 77.9303 66.8498 78.4643 67.1069 79.084C67.2976 79.5436 67.4166 80.1322 67.752 80.5088C67.9017 80.677 69.0147 80.7787 69.3752 80.6319C69.7357 80.4851 70.1397 80.1038 70.2607 79.8649C70.3846 79.6203 70.4142 79.3517 70.3612 79.084C70.3301 78.9265 70.2665 78.7793 70.2318 78.6246C70.2025 78.4947 70.1759 78.3718 70.1127 78.2528C69.9929 78.0272 69.7883 77.865 69.5415 77.7972C69.7983 77.5603 70.0111 77.2768 70.1584 76.9599C70.3114 76.6306 70.4411 76.2302 70.4779 75.8689C70.5078 75.5753 70.4616 75.2713 70.3011 75.019C70.1326 74.7544 69.8343 74.5818 69.5761 74.4167C69.9704 74.108 70.3079 73.7325 70.5854 73.3167C71.125 72.5082 71.4587 71.4891 71.1847 70.5253Z" fill="#191847"/>
<path fill-rule="evenodd" clip-rule="evenodd" d="M46.4423 141.094L67.4237 196.656L82.1301 237.608H90.5157L70.3003 141.094L46.4423 141.094Z" fill="#1F28CF"/>
<path fill-rule="evenodd" clip-rule="evenodd" d="M41.2565 141.094C41.0284 160.159 41.1933 185.826 40.6619 187.014C40.3076 187.806 29.2887 196.833 7.60516 214.094L11.9274 221.45C37.6708 204.835 51.2005 195.421 52.5167 193.208C54.4909 189.887 64.4092 159.333 69.5696 141.094H41.2565Z" fill="#2B44FF"/>
<path fill-rule="evenodd" clip-rule="evenodd" d="M0.000335006 219.045L7.30129 213.483L13.1914 220.509C13.6441 225.805 15.3959 231.745 18.4468 238.328L17.1096 239.451L6.45136 226.739L3.47374 221.828L2.80513 222.39L0.000335006 219.045Z" fill="#191847"/>
<path fill-rule="evenodd" clip-rule="evenodd" d="M81.3515 245.469L81.7879 236.298H90.9516C95.2968 239.355 100.97 241.83 107.97 243.722V245.469H91.388L85.7152 244.595V245.469H81.3515Z" fill="#191847"/>
<path fill-rule="evenodd" clip-rule="evenodd" d="M83.4289 135.57L97.3484 145.8C101.124 146.819 104.278 148.088 106.811 149.605C107.409 150.151 108.132 151.256 105.651 151.065C103.169 150.874 100.551 150.784 100.208 151.632C99.8659 152.479 101.368 153.492 100.675 154.634C100.214 155.396 98.0341 153.486 94.1358 148.903L80.3519 143.183L83.4289 135.57ZM29.9853 135.923L39.1043 135.959C33.4737 154.15 30.4341 163.802 29.9853 164.915C28.9756 167.419 31.1123 171.233 32.0261 173.283C29.05 174.616 29.3671 169.68 25.6129 171.428C22.1862 173.023 19.5795 175.914 15.6205 173.47C15.1338 173.169 14.6004 172.037 15.8891 171.153C19.0998 168.95 23.7266 165.094 24.3518 163.824C25.2043 162.093 27.0821 152.793 29.9853 135.923Z" fill="#B28B67"/>
<path fill-rule="evenodd" clip-rule="evenodd" d="M55.9 97.6289L59.6733 96.9812C73.6735 109.085 79.4239 132.337 96.5847 144.655L92.4543 149.779C62.6834 146.09 55.3045 117.728 55.9 97.6289Z" fill="#E87613"/>
<path fill-rule="evenodd" clip-rule="evenodd" d="M39.4512 145.086C54.5809 145.086 65.7099 145.086 72.8384 145.086C74.364 145.086 74.0766 142.881 73.856 141.768C71.3107 128.929 61.3749 115.088 61.3749 96.8116L51.7445 95.3003C43.7789 108.121 41.0242 123.907 39.4512 145.086Z" fill="#DDE3E9"/>
<path fill-rule="evenodd" clip-rule="evenodd" d="M39.7193 107.903C38.3206 107.501 37.213 106.562 36.3964 105.088C32.8765 98.7312 34.1477 95.2316 37.9094 94.0812C41.6711 92.9308 45.0258 95.3004 51.0192 95.3004C51.3452 95.3004 51.6438 95.3208 51.9149 95.3618L54.9298 95.5339C63.5797 124.872 65.9653 144.447 62.0865 154.257H35.8081C34.2511 157.89 32.7613 160.947 31.3384 163.428H24.1781C23.5042 141.621 28.6846 123.113 39.7193 107.903Z" fill="#FF9B21"/>
<path fill-rule="evenodd" clip-rule="evenodd" d="M41.5303 139.189C42.3568 146.109 43.7 151.132 45.5601 154.257H35.808C37.6242 150.018 39.5316 144.996 41.5303 139.189H41.5303Z" fill="black" fill-opacity="0.1"/>
</svg>
