<svg width="23" height="23" viewBox="0 0 23 23" fill="none" xmlns="http://www.w3.org/2000/svg">
<path d="M22.6631 12.4731C22.477 12.4731 22.3262 12.6371 22.3262 12.8393V17.7825C22.3262 18.0292 22.1416 18.2299 21.9147 18.2299H20.4164C20.1971 18.2299 20.0188 18.4237 20.0188 18.662V21.0134L16.4024 18.3057C16.3358 18.2561 16.258 18.2299 16.1773 18.2299H10.0236C9.79665 18.2299 9.61207 18.0292 9.61207 17.7825V14.8229H10.8992C11.0853 14.8229 11.2361 14.659 11.2361 14.4567C11.2361 14.2545 11.0853 14.0905 10.8992 14.0905H5.28447C5.21619 14.0905 5.14957 14.113 5.09338 14.1551L2.43912 16.1424V14.4567C2.43912 14.2545 2.28828 14.0905 2.10221 14.0905H1.08217C0.85702 14.0905 0.673828 13.8914 0.673828 13.6467V2.15906C0.673828 1.91433 0.85702 1.71521 1.08217 1.71521H3.38693C3.573 1.71521 3.72384 1.55125 3.72384 1.349C3.72384 1.14675 3.573 0.982788 3.38693 0.982788H1.08217C0.485471 0.982739 0 1.51042 0 2.15906V13.6467C0 14.2952 0.485471 14.8229 1.08217 14.8229H1.76525V16.8393C1.76525 16.9754 1.83465 17.1002 1.94543 17.1635C1.99467 17.1916 2.04848 17.2055 2.10212 17.2055C2.16919 17.2055 2.23599 17.1838 2.29326 17.1409L5.38923 14.8229H8.9382V17.7825C8.9382 18.433 9.42506 18.9623 10.0235 18.9623H16.0915L20.0697 21.9408C20.1374 21.9915 20.2161 22.0172 20.295 22.0172C20.3583 22.0172 20.4218 22.0007 20.4801 21.9674C20.6112 21.8925 20.6927 21.7459 20.6927 21.5849V18.9623H21.9147C22.5131 18.9623 23 18.4331 23 17.7825V12.8393C23 12.6371 22.8492 12.4731 22.6631 12.4731Z" fill="#909090"/>
<path d="M21.9146 8.86482H19.1962V2.15906C19.1962 1.51042 18.7107 0.982788 18.114 0.982788H4.96509C4.77902 0.982788 4.62817 1.14675 4.62817 1.349C4.62817 1.55125 4.77902 1.71521 4.96509 1.71521H18.114C18.3392 1.71521 18.5224 1.91433 18.5224 2.15906V13.6467C18.5224 13.8914 18.3392 14.0905 18.114 14.0905H12.4572C12.2711 14.0905 12.1203 14.2545 12.1203 14.4567C12.1203 14.659 12.2711 14.8229 12.4572 14.8229H18.114C18.7107 14.8229 19.1962 14.2952 19.1962 13.6467V9.59724H21.9147C22.1416 9.59724 22.3262 9.79788 22.3262 10.0446V11.1378C22.3262 11.3401 22.477 11.504 22.6631 11.504C22.8492 11.504 23 11.3401 23 11.1378V10.0446C23 9.39402 22.5131 8.86482 21.9146 8.86482Z" fill="#909090"/>
<path d="M16.8623 3.16699H2.34021C2.15414 3.16699 2.0033 3.33096 2.0033 3.5332C2.0033 3.73545 2.15414 3.89941 2.34021 3.89941H16.8623C17.0484 3.89941 17.1992 3.73545 17.1992 3.5332C17.1992 3.33096 17.0484 3.16699 16.8623 3.16699Z" fill="#909090"/>
<path d="M16.8622 7.54968H14.5615C14.3754 7.54968 14.2245 7.71365 14.2245 7.91589C14.2245 8.11814 14.3754 8.2821 14.5615 8.2821H16.8622C17.0483 8.2821 17.1991 8.11814 17.1991 7.91589C17.1991 7.71365 17.0483 7.54968 16.8622 7.54968Z" fill="#909090"/>
<path d="M2.34021 7.54968C2.15414 7.54968 2.0033 7.71365 2.0033 7.91589C2.0033 8.11814 2.15414 8.2821 2.34021 8.2821H13.0019C13.188 8.2821 13.3388 8.11814 13.3388 7.91589C13.3388 7.71365 13.188 7.54968 13.0019 7.54968H2.34021Z" fill="#909090"/>
<path d="M2.34021 11.9116C2.15414 11.9116 2.0033 12.0756 2.0033 12.2778C2.0033 12.4801 2.15414 12.644 2.34021 12.644H4.64093C4.82699 12.644 4.97784 12.4801 4.97784 12.2778C4.97784 12.0756 4.82699 11.9116 4.64093 11.9116H2.34021Z" fill="#909090"/>
<path d="M16.8623 11.9116H6.20056C6.0145 11.9116 5.86365 12.0756 5.86365 12.2778C5.86365 12.4801 6.0145 12.644 6.20056 12.644H16.8623C17.0484 12.644 17.1992 12.4801 17.1992 12.2778C17.1992 12.0756 17.0484 11.9116 16.8623 11.9116Z" fill="#909090"/>
<path d="M16.8623 9.71436H2.34021C2.15414 9.71436 2.0033 9.87832 2.0033 10.0806C2.0033 10.2828 2.15414 10.4468 2.34021 10.4468H16.8623C17.0484 10.4468 17.1992 10.2828 17.1992 10.0806C17.1992 9.87832 17.0484 9.71436 16.8623 9.71436Z" fill="#909090"/>
<path d="M15.8499 5.74011C15.8499 5.53787 15.6991 5.3739 15.513 5.3739H2.33856C2.1525 5.3739 2.00165 5.53787 2.00165 5.74011C2.00165 5.94236 2.1525 6.10632 2.33856 6.10632H15.513C15.6991 6.10632 15.8499 5.94236 15.8499 5.74011Z" fill="#909090"/>
</svg>
