<svg width="74" height="74" viewBox="0 0 74 74" fill="none" xmlns="http://www.w3.org/2000/svg">
<circle cx="37" cy="37" r="36" fill="#FAFF00" stroke="#FAFF00" stroke-width="2"/>
<g clip-path="url(#clip0)">
<path d="M24.0945 51.9089H21.6145L23.3682 50.1552C24.3137 49.2097 24.9042 47.9798 25.0629 46.6457C22.5955 45.0265 20.7913 42.8962 19.8254 40.4531C18.8603 38.0119 18.739 35.3245 19.4747 32.6815C20.3575 29.5101 22.428 26.6194 25.3046 24.542C28.4306 22.2846 32.3221 21.0913 36.5585 21.0913C41.8952 21.0913 46.3935 22.6246 49.5668 25.5253C52.4256 28.1385 54 31.6634 54 35.4508C54 37.2908 53.6253 39.0812 52.8865 40.7722C52.1219 42.522 51.0022 44.0801 49.5587 45.403C46.3811 48.3151 41.8856 49.8544 36.5584 49.8544C34.5808 49.8544 32.5172 49.5904 30.6748 49.1059C28.9309 50.8949 26.5677 51.9089 24.0945 51.9089ZM36.5585 23.1458C28.0639 23.1458 22.8515 28.2117 21.454 33.2324C20.1333 37.9769 22.0801 42.4601 26.6617 45.2249L27.1736 45.5338L27.1578 46.1315C27.1266 47.3145 26.8446 48.4539 26.3398 49.4839C27.569 49.068 28.6844 48.314 29.5578 47.2821L29.9922 46.7689L30.6363 46.9616C32.4437 47.5022 34.5469 47.7999 36.5585 47.7999C47.1304 47.7999 51.9455 41.3985 51.9455 35.4508C51.9455 32.2474 50.6084 29.261 48.1806 27.0417C45.3924 24.493 41.3735 23.1458 36.5585 23.1458Z" fill="black"/>
</g>
<defs>
<clipPath id="clip0">
<rect width="35" height="35" fill="white" transform="translate(19 19)"/>
</clipPath>
</defs>
</svg>
