<svg width="74" height="74" viewBox="0 0 74 74" fill="none" xmlns="http://www.w3.org/2000/svg">
<circle cx="37" cy="37" r="36" fill="black" stroke="#FAFF00" stroke-width="2"/>
<path d="M35.0834 35.5701C34.7567 35.2517 34.23 35.2551 33.905 35.5835C26.8016 42.8285 22.0416 48.4635 18.74 55.8251C18.5516 56.2451 18.7384 56.7385 19.1584 56.9268C19.27 56.9768 19.3866 57.0001 19.5 57.0001C19.8166 57.0001 20.1216 56.8168 20.2616 56.5068C23.4616 49.3718 28.1233 43.8601 35.0966 36.7484C35.4184 36.4218 35.4116 35.8918 35.0834 35.5701Z" fill="#FAFF00"/>
<path d="M54.5 17C36.58 17 22 31.58 22 49.5C22 49.96 22.3734 50.3334 22.8334 50.3334C34.8034 50.3334 45.7717 43.7784 51.46 33.2284C51.5984 32.97 51.5916 32.6567 51.4416 32.4067C51.29 32.1551 51.0183 32.0001 50.725 32.0001H47.6384L53.1734 28.8367C53.35 28.7367 53.4834 28.5751 53.5484 28.3834C54.7334 24.935 55.3334 21.385 55.3334 17.8334C55.3334 17.3734 54.96 17 54.5 17ZM52.0717 27.5466L44.0867 32.1084C43.7584 32.2984 43.5984 32.6817 43.6951 33.0467C43.7917 33.4134 44.1217 33.6667 44.5001 33.6667H49.2917C43.8716 42.715 34.2334 48.3684 23.6784 48.655C24.1184 32.3234 37.3216 19.12 53.655 18.6784C53.57 21.6616 53.0384 24.64 52.0717 27.5466Z" fill="#FAFF00"/>
</svg>
